maxVelZeroAng
version=1
nRows=82
nColumns=5
inDegrees=yes
endheader
time	/jointset/LegToGround/ankle_rz/value	/jointset/LegToGround/ankle_rz/speed	/jointset/Hip/hip_rz/value	/jointset/Hip/hip_rz/speed
      0.00000000	      0.00000000	     55.00000000	      0.00000000	      0.00000000
      0.00656102	      0.35160754	     52.12910179	     -0.01414903	     -3.95926300
      0.01312205	      0.68357529	     49.04219706	     -0.04825597	     -6.21341531
      0.02130937	      1.06895235	     45.09339024	     -0.10550488	     -7.56195496
      0.02949669	      1.42207774	     41.18353705	     -0.16950506	     -7.95433509
      0.03955356	      1.81280975	     36.56166252	     -0.24884308	     -7.73044520
      0.04961042	      2.15839627	     32.21456079	     -0.32369016	     -7.10984203
      0.06293429	      2.55183078	     26.93651613	     -0.41136902	     -6.01976791
      0.07625815	      2.87872353	     22.22716047	     -0.48362909	     -4.81810158
      0.09618672	      3.25988871	     16.23251172	     -0.56141162	     -2.99051378
      0.10065070	      3.32970559	     15.05761106	     -0.57385632	     -2.58773062
      0.10511468	      3.39440700	     13.93950263	     -0.58459604	     -2.23669358
      0.11718598	      3.54554629	     11.15590555	     -0.60722370	     -1.56395640
      0.12925728	      3.66492779	      8.66900566	     -0.62315015	     -1.09513243
      0.14489924	      3.77777067	      5.82723733	     -0.63627979	     -0.59388022
      0.16054119	      3.84926410	      3.37683080	     -0.64187069	     -0.12205170
      0.18368947	      3.89168954	      0.41739808	     -0.63657936	      0.58253861
      0.19430762	      3.89012047	     -0.68712653	     -0.62864777	      0.91206860
      0.20062539	      3.88390497	     -1.27160378	     -0.62226149	      1.10829522
      0.20694316	      3.87415811	     -1.80638781	     -0.61474047	      1.26119961
      0.22143707	      3.83993756	     -2.88434386	     -0.59495788	      1.44176196
      0.23593098	      3.79135774	     -3.79348504	     -0.57336371	      1.53149687
      0.25517611	      3.70849233	     -4.77778565	     -0.54293579	      1.63223789
      0.27827098	      3.58742648	     -5.65262212	     -0.50359253	      1.78171136
      0.29277287	      3.50249379	     -6.04043426	     -0.47694468	      1.89583443
      0.30111739	      3.45135835	     -6.20912758	     -0.46082753	      1.96600388
      0.30946190	      3.39896761	     -6.34268414	     -0.44423741	      2.00172370
      0.32791826	      3.27984171	     -6.54833448	     -0.40739964	      1.97730096
      0.34637462	      3.15782971	     -6.65909532	     -0.37141471	      1.92271498
      0.37052848	      2.99644367	     -6.68194111	     -0.32563759	      1.87398093
      0.39609124	      2.82682777	     -6.56492062	     -0.27796584	      1.86235418
      0.40476136	      2.77020806	     -6.49350307	     -0.26180907	      1.86169179
      0.41688776	      2.69216956	     -6.37435282	     -0.23944174	      1.82209265
      0.43818111	      2.55895931	     -6.13177253	     -0.20171754	      1.71988204
      0.45947447	      2.43125549	     -5.85821802	     -0.16613216	      1.62572935
      0.49285938	      2.24358728	     -5.37307078	     -0.11376872	      1.51984655
      0.50901570	      2.15885412	     -5.11393251	     -0.08953110	      1.47672333
      0.53125602	      2.04919304	     -4.74714324	     -0.05777004	      1.37736808
      0.55349634	      1.94769500	     -4.38055694	     -0.02823834	      1.28060295
      0.58829543	      1.80519940	     -3.80919636	      0.01411493	      1.16020457
      0.60727528	      1.73586532	     -3.49670116	      0.03563859	      1.10596427
      0.62625513	      1.67243908	     -3.18803069	      0.05599695	      1.03815669
      0.65404266	      1.58996708	     -2.75096280	      0.08347294	      0.94189932
      0.68916907	      1.50269401	     -2.22202012	      0.11474006	      0.84285149
      0.71214601	      1.45550296	     -1.88707443	      0.13348430	      0.78736740
      0.73512296	      1.41588332	     -1.56383045	      0.15085665	      0.72529017
      0.77011236	      1.36942740	     -1.09628048	      0.17473249	      0.64265929
      0.80978065	      1.33596740	     -0.59510627	      0.19870214	      0.56670116
      0.84189634	      1.32308589	     -0.21042677	      0.21595300	      0.50864893
      0.87401203	      1.32226238	      0.15642927	      0.23144261	      0.45770225
      0.91313770	      1.33682084	      0.58494049	      0.24834237	      0.40661261
      0.95226336	      1.36780691	      0.99619009	      0.26332020	      0.36094124
      0.99138903	      1.41461364	      1.39481534	      0.27667569	      0.32339167
      1.06104750	      1.53608448	      2.09213010	      0.29747017	      0.27775232
      1.11877919	      1.67369507	      2.67802672	      0.31277732	      0.25388464
      1.17651088	      1.84576322	      3.28803951	      0.32701829	      0.24211056
      1.22282184	      2.00991076	      3.80584101	      0.33808168	      0.23608634
      1.26913279	      2.19876288	      4.35602291	      0.34900431	      0.23651224
      1.32716179	      2.47287632	      5.10326081	      0.36284696	      0.24098637
      1.38519079	      2.79252528	      5.92746042	      0.37711797	      0.25296920
      1.43092575	      3.07972129	      6.64195523	      0.38892354	      0.26345916
      1.47666071	      3.40104478	      7.42106124	      0.40131241	      0.27898487
      1.53516198	      3.86687129	      8.52585830	      0.41829072	      0.30179674
      1.59366324	      4.40127815	      9.76846323	      0.43675466	      0.33146883
      1.64000882	      4.87900298	     10.86484625	      0.45268595	      0.35621693
      1.68635440	      5.41004646	     12.07115224	      0.46987579	      0.38640135
      1.74375625	      6.14979331	     13.73656528	      0.49321638	      0.42733659
      1.80115811	      6.99111455	     15.61424701	      0.51908462	      0.47609447
      1.84913863	      7.78164709	     17.36751790	      0.54296056	      0.51947446
      1.89711915	      8.66067761	     19.30607853	      0.56906724	      0.56996527
      1.94509968	      9.63756899	     21.45021292	      0.59770236	      0.62442801
      2.00966119	     11.12487099	     24.69638126	      0.64063773	      0.70874105
      2.05488868	     12.29856677	     27.24547404	      0.67411917	      0.77255875
      2.10011616	     13.59312274	     30.04450305	      0.71065603	      0.84433359
      2.16045448	     15.52898673	     34.20832616	      0.76471555	      0.94903673
      2.22079281	     17.73219503	     38.91553265	      0.82547462	      1.06832489
      2.26434937	     19.50815720	     42.68641798	      0.87399273	      1.16042294
      2.30790594	     21.45565293	     46.79582804	      0.92671380	      1.26152953
      2.35899582	     23.97922532	     52.08018723	      0.99438862	      1.38880819
      2.41008570	     26.78632122	     57.90087354	      1.06884523	      1.52704859
      2.45657903	     29.61109736	     63.69324640	      1.14295302	      1.66138518
      2.50307236	     32.71660240	     69.98023188	      1.22350194	      1.80364837
